<?xml version='1.0' encoding='utf-8'?>
<svg xmlns="http://www.w3.org/2000/svg" width="1024" height="1024" viewBox="0 0 1024 1024">
  <defs>
    <linearGradient id="tileGrad" x1="0" y1="0" x2="0" y2="1">
      <stop offset="0" stop-color="#34d399"/>
      <stop offset="1" stop-color="#2dd4bf"/>
    </linearGradient>
  </defs>
  <rect x="0" y="0" width="1024" height="1024" rx="229.1" ry="229.1" fill="url(#tileGrad)"/>
  <svg x="0" y="0" width="1024" height="1024" viewBox="266.27 190.44 1628.63 1628.63" overflow="visible">
    <g transform="translate(0.000000,2160.000000) scale(0.100000,-0.100000)">
<path d="M 8814.1,6073.1 L 12810.9,6073.1 Q 15360.9,6073.1 15360.9,8623.0 L 15360.9,11123.0 Q 15360.9,13673.0 12810.9,13673.0 L 8814.1,13673.0 Q 6264.1,13673.0 6264.1,11123.0 L 6264.1,8623.0 Q 6264.1,6073.1 8814.1,6073.1 Z" fill="none" stroke="#000000" stroke-width="1150" stroke-linejoin="round"/>
<path d="M 9192.0,14528.0 Q 9192.0,15588.0 10462.0,15588.0 L 11162.0,15588.0 Q 12432.0,15588.0 12432.0,14528.0 Z" fill="#000000" stroke="none"/>
<path d="M 10812.0,15588.0 L 10812.0,16455.0" fill="none" stroke="#000000" stroke-width="620" stroke-linecap="round"/>
<path d="M 9707.0,17500.0 A 1105.0,1105.0 0 1 0 11917.0,17500.0 A 1105.0,1105.0 0 1 0 9707.0,17500.0 Z" fill="#000000" stroke="none"/>
<path d="M 5409.1,11893.0 A 1240.0,1680.0 0 0 1 4169.1,10213.0 L 4169.1,9533.0 A 1240.0,1680.0 0 0 1 5409.1,7853.0 L 5409.1,11893.0 Z" fill="#000000" stroke="none"/>
<path d="M 16215.9,11893.0 A 1240.0,1680.0 0 0 0 17455.9,10213.0 L 17455.9,9533.0 A 1240.0,1680.0 0 0 0 16215.9,7853.0 L 16215.9,11893.0 Z" fill="#000000" stroke="none"/>
<path d="M 8653.9,10808.5 C 8526.6,10788.4 8337.6,10737.5 8245.2,10696.0 C 8085.7,10626.3 8030.8,10595.5 7930.3,10520.4 C 7847.2,10457.5 7670.3,10277.9 7622.1,10206.9 C 7604.6,10181.4 7585.9,10157.3 7581.9,10153.3 C 7555.1,10127.8 7434.5,9883.9 7434.5,9853.1 C 7434.5,9842.4 7429.1,9830.3 7422.4,9826.3 C 7415.7,9822.3 7407.7,9802.2 7403.6,9782.1 C 7399.6,9760.6 7388.9,9717.8 7380.9,9684.3 C 7372.8,9650.8 7359.4,9590.5 7352.7,9550.3 C 7301.8,9240.7 7335.3,9129.5 7500.1,9074.6 L 7569.8,9051.8 L 7628.8,9089.3 C 7660.9,9110.8 7754.7,9187.1 7836.5,9258.1 C 8014.7,9413.6 8121.9,9486.0 8285.4,9562.3 C 8521.2,9673.5 8590.9,9693.6 8767.8,9703.0 C 8940.6,9712.4 9247.5,9682.9 9264.9,9656.1 C 9268.9,9649.4 9283.7,9644.1 9298.4,9644.1 C 9311.8,9644.1 9334.6,9638.7 9348.0,9632.0 C 9360.0,9625.3 9401.6,9606.5 9437.8,9589.1 C 9496.7,9562.3 9528.9,9543.6 9638.8,9472.5 C 9759.4,9396.2 9819.7,9347.9 9968.4,9205.9 C 10106.4,9075.9 10148.0,9055.8 10237.7,9074.6 C 10294.0,9086.6 10363.7,9138.9 10389.2,9188.5 C 10413.3,9235.4 10417.3,9457.8 10394.5,9542.2 C 10386.5,9571.7 10374.4,9621.3 10366.4,9650.8 C 10292.7,9928.1 10170.7,10149.2 9989.8,10331.5 C 9902.7,10418.6 9737.9,10555.3 9717.8,10555.3 C 9713.8,10555.3 9685.7,10572.7 9654.8,10592.8 C 9593.2,10634.3 9538.3,10661.1 9444.5,10696.0 C 9411.0,10708.0 9372.1,10722.8 9357.4,10729.5 C 9195.2,10793.8 8829.4,10834.0 8653.9,10808.5" fill="#000000" stroke="none"/>
<path d="M 12553.3,10849.4 C 12417.9,10825.3 12332.2,10807.9 12298.7,10797.2 C 12279.9,10791.8 12238.4,10778.4 12204.9,10769.0 C 12037.4,10719.5 11789.5,10566.7 11639.4,10419.3 C 11396.8,10182.1 11245.4,9888.7 11199.9,9571.1 C 11171.7,9371.4 11169.0,9321.8 11187.8,9265.6 C 11210.6,9195.9 11241.4,9163.7 11323.1,9124.9 C 11431.7,9073.9 11437.0,9076.6 11655.5,9269.6 C 11761.3,9363.4 11831.0,9417.0 11969.0,9509.4 C 12077.6,9583.1 12279.9,9685.0 12316.1,9685.0 C 12328.1,9685.0 12340.2,9690.3 12344.2,9697.0 C 12364.3,9729.2 12694.0,9757.3 12856.1,9739.9 C 13030.3,9721.2 13087.9,9711.8 13097.3,9697.0 C 13101.3,9690.3 13114.7,9685.0 13128.1,9685.0 C 13158.9,9685.0 13284.9,9627.4 13416.2,9552.3 C 13477.9,9517.5 13629.3,9417.0 13638.7,9403.6 C 13642.7,9399.6 13657.4,9386.2 13673.5,9375.4 C 13689.6,9364.7 13743.2,9319.2 13794.1,9274.9 C 13930.8,9153.0 13962.9,9128.9 14008.5,9110.1 C 14044.7,9095.4 14058.1,9096.7 14113.0,9123.5 C 14147.9,9139.6 14193.4,9174.4 14214.9,9201.2 C 14253.7,9248.1 14255.1,9252.2 14255.1,9399.6 C 14255.1,9541.6 14240.3,9648.8 14213.5,9701.1 C 14206.8,9714.5 14201.5,9734.6 14201.5,9748.0 C 14201.5,9825.7 14066.1,10121.8 13975.0,10241.1 C 13792.8,10480.9 13512.7,10681.9 13230.0,10778.4 C 13051.7,10838.7 12700.7,10874.9 12553.3,10849.4" fill="#000000" stroke="none"/>
</g>
  </svg>
</svg>